<svg xmlns="http://www.w3.org/2000/svg" viewBox="0 0 397 311" fill="none">
  <defs>
    <linearGradient id="solana" x1="360.879" y1="-37.5494" x2="141.213" y2="383.93" gradientUnits="userSpaceOnUse">
      <stop offset="0" stop-color="#00FFA3" />
      <stop offset="1" stop-color="#DC1FFF" />
    </linearGradient>
  </defs>
  <path
    d="M64.6582 237.962C67.0581 235.562 70.358 234.162 73.8579 234.162H390.158C395.958 234.162 398.858 241.162 394.758 245.262L332.758 307.262C330.358 309.662 327.058 311.062 323.558 311.062H7.25839C1.45836 311.062 -1.44167 304.062 2.65835 299.962L64.6582 237.962Z"
    fill="url(#solana)"
  />
  <path
    d="M64.6582 5.96202C67.1582 3.56204 70.4581 2.16205 73.8579 2.16205H390.158C395.958 2.16205 398.858 9.16201 394.758 13.262L332.758 75.262C330.358 77.6619 327.058 79.062 323.558 79.062H7.25839C1.45836 79.062 -1.44167 72.0619 2.65835 67.962L64.6582 5.96202Z"
    fill="url(#solana)"
  />
  <path
    d="M332.758 121.162C330.358 118.762 327.058 117.362 323.558 117.362H7.25839C1.45836 117.362 -1.44167 124.362 2.65835 128.462L64.6582 190.462C67.0581 192.862 70.358 194.262 73.8579 194.262H390.158C395.958 194.262 398.858 187.262 394.758 183.162L332.758 121.162Z"
    fill="url(#solana)"
  />
</svg>
